<?xml version="1.0" encoding="UTF-8"?>
<svg enable-background="new 0 0 1000 800" version="1.1" viewBox="0 0 1000 800" xml:space="preserve" xmlns="http://www.w3.org/2000/svg">
<rect width="1e3" height="800" fill="#3C3C3B"/>
		<path d="m578.6 521.5c-9.6 1.9-24.5 4.8-39.3 7.8-5.5 1.1-12.5 2.4-9.7-6.3 3.5-10.7 7.6-22.1 14.6-30.5 11-13.2 52.3-9.5 63 3.9 49.8 62.5 47.8 78.4-15.6 126.5-9.1 6.9-18.5 13.2-28.2 19.2-7.3 4.5-15.4 8.4-22.1-0.8-6.8-9.3-8.9-18.6-0.3-28.8 25.9-30.8 26.2-31.2 6.2-64.3-6-10 0.4-10.6 6.1-11.6 13.4-2.3 27-3.7 40.5-5.5 4.2-0.6 11.3 1.1 11.6-3.8 0.4-7.7-7.6-5-12.2-5.8-3-0.4-6.1 0-14.6 0z" fill="#AE938A"/>
		<path d="m409.7 483.4c39.6-0.6 50.2 6.2 56.7 31.6 3.6 14.2-1.1 15.8-13.5 13.1-14.1-3-28.4-5-42.7-6.3-6-0.5-16.5-3.1-16.9 5.2-0.3 6.8 9.9 3.2 15.3 4.3 4.4 0.8 9.1 0.4 13.6 0.9 29.7 3.3 30 3.9 14.5 26.9-10.8 16-8.6 35.1 6.2 49.6 4.3 4.2 9.4 7.7 14 11.7 7.4 6.5 4.8 13.5 0.5 20.4-4.6 7.3-11.1 7.7-17.8 4-29.4-16.4-55.7-36.9-77.1-63.1-5.9-7.2-8.3-16.4-6.1-25.9 6.7-28.7 27.5-48.4 45.6-69.7 2.1-2.4 6.9-2.4 7.7-2.7z" fill="#AE938A"/>
		<path d="m611.9 668.6c-0.6 52.4 5.2 46.1-46.1 46.4-46.2 0.3-46.1 0.1-38-46.4 1.8-10.5-0.3-20.6 17.8-12.3 14.8 6.8 27.4-8.8 40.4-16 7.6-4.2 13.7-16.1 22.7-11.2 6.9 3.8 2.5 15.4 3.1 23.5 0.4 5.4 0.1 10.7 0.1 16z" fill="#BBA298"/>
		<path d="m397.3 672.9c0-40.1 0.3-40.6 33.5-21.4 17.5 10.1 29.9 7.3 39.2-10.4 2.4-4.6 4.5-11.1 11-9.3 7.2 2 3.7 9 3.4 13.7-0.9 13.6-4.2 27.2-3.5 40.6 1.3 25.2-11.3 31.8-33.3 28.9-3-0.4-6.1 0-9.1 0-45.5-0.1-40.8 3.5-41.2-42.1z" fill="#BBA298"/>
	<path d="m487.4 724.7c-1.1-27.5 2.9-54.6 6.8-81.7 1.9-13.4 3.2-24.9-15.7-24.7-6.6 0-12-3.2-12.5-10.6-0.5-6.6 2.8-11.8 8.2-15.3 7.1-4.6 11 0.4 14.9 5.5 2.8 3.6 5.5 8.8 9.2 9.8 31.1 8.4 24.6 30.8 21.3 53-5 33.8-8.9 67.8-13.3 101.6-0.9 6.6-0.7 15.5-10.1 15-9.2-0.5-8.4-9.5-8.6-16.1-0.6-12.2-0.2-24.4-0.2-36.5z" fill="#986E4B"/>
	<g fill="#ACC473">
		<path d="m500.3 481.8c-65.3-4.5-127.1-11.8-186.3-33.3-80.2-29.1-101.9-77.1-76.8-169.1 4.2-15.4 11.9-29.7 21.2-42.8 29.6-41.4 58.9-83.1 89.4-123.8 74.7-99.8 228.9-99.6 303.4 0.9 31.7 42.7 64.7 84.5 92.8 129.8 20.7 33.4 28.6 69.6 25.9 108.9-2.7 38.9-21.9 65-55.7 82.5-48.8 25.2-101.9 34.5-155.5 41.4-20.3 2.6-40.8 3.9-58.4 5.5zm-85.3-196c-0.5-23.2-19.8-41.8-42.4-41.1-22.8 0.7-40.8 20-40.3 43.3 0.5 23 20 42 42.5 41.4 22.4-0.8 40.7-20.5 40.2-43.6zm209.9 43.4c22.5 0.2 41.3-19.1 41.3-42.3 0.1-22.8-19-42.3-41.5-42.2s-41.5 19.5-41.4 42.3c0.1 22.9 18.9 42 41.6 42.2zm-42.7 51.1c-0.6 0.3-4.1 0.9-6.2 2.9-33 31.2-113.6 32.6-147.2 2.9-7.9-7-6.7-10.5 1.8-14.4 4-1.8 10-3.6 6.6-9.2-3.1-5.3-8.4-0.9-12.1 0.8-17.7 8-32.5 19.8-42.3 36.7-4.6 7.9-15.6 18.9-6 25.4 6.5 4.3 7.6-12 12.9-17.8 1-1.1 1.6-2.6 2.4-3.9 8.9-14.4 16.1-21.4 34.9-8 47.1 33.6 97.1 28.8 145.7 1.2 24.9-14.1 26.7-14.2 38.7 12 1.3 2.8 2.4 5.6 3.5 8.4 1.4 3.5 2.5 8.4 7.1 6.9 4-1.4 3.3-6.4 2.2-9.9-8.2-27.1-26.7-45.3-51-58.2-2.7-1.4-6-2.4-7.9 1.1-1.8 3.4 0.8 5.5 3.1 7.4 4.5 3.7 11.7 4.2 13.8 15.7zm-119.8-244.5c-43.6 2-84.4 8.2-120.8 31.1-3.7 2.3-9.5 5.1-7.4 9.9 2.4 5.7 7.7 2.2 11.4 0 36-21.9 75.8-28.7 117.1-30 5.7-0.2 15.6 1.5 15.1-5.4-0.6-8.6-10.8-4.9-15.4-5.6zm74.1-0.2c-4.6 0.9-15.8-2.7-15.8 4.9-0.1 10.4 11.6 6.3 18.1 6.4 39.2 1 76.6 8.2 111.1 27.9 4.1 2.4 10.2 8.9 13.6 2.7 3.8-7-5.2-9.5-9.9-12.3-35.4-21.4-74.9-27.4-117.1-29.6zm1.8-37c-8.4 1.7-19-2.9-19.9 5.2s9.8 6.4 15.9 7.1c19.6 2.3 39.2 4.1 58.8 6.1 3.6 0.4 8.6 2.2 9.9-2.2 1.9-6.2-4.1-7.3-8.3-8-19.4-3.1-38.9-5.7-56.4-8.2zm-77.7 0.2c-16.5 2.2-35.2 4.6-53.7 7.3-4.9 0.7-12.6 0.6-11.8 7.4 1 8.1 8.5 3.7 12.9 3 18.6-3.2 37.2-5.1 56.1-5.5 6-0.1 16.7 2.5 16-6.5-0.5-8.1-11-4.4-19.5-5.7zm-26.1-17.5c12.7-0.9 25.4-1.9 38.2-2.8 3.9-0.3 8.3-1.6 8.6-5.7 0.3-4.4-4.2-5.6-8-6.1-13.7-1.6-27 1.3-40.1 4.8-3.4 0.9-7.6 2.8-6 7.7 1 3.3 4.2 3.6 7.3 2.1zm102.8-15.4c-7.5 1.9-18.9-3.4-19.3 6.8-0.2 7.2 11 4.8 17.3 5.8 8.9 1.4 17.8 2.3 26.7 3.4 3.6 0.5 8 1.6 9.4-3.1 1.4-4.9-3-6.5-6.4-7.3-9.4-2.3-19-3.9-27.7-5.6z"/>
		<path d="m848.7 127.9c-46-0.8-89.1 10.3-128.8 33.1-13.6 7.8-21 3.8-27.3-7.9-8.1-15.3 7.7-14.2 13.6-17.2 80.7-41.3 164.2-45.5 249.7-16.3 5.5 1.9 14.4 2.6 14.6 8.4 0.2 6.4-9 7-14.2 9.4-28.5 13-50.8 32.3-67.1 59.4-23.7 39.4-58.6 67.5-97.8 90.4-4.3 2.5-12.4 12.4-15.8 0.2-2.7-9.5-17.2-20.8-2.8-30.1 47.8-30.9 70.3-88.6 122.6-114.4 2.3-1.1 4.7-4.6 4.8-7 0.1-4.8-4.4-5.5-8.2-5.8-14.5-0.9-28.9-1.5-43.3-2.2z"/>
		<path d="m155.7 101.7c48.3-3.3 93.5 14.4 137.8 35 5.9 2.7 19.2 3 12.2 16.1-5.4 10.1-11.8 16.6-25.1 8.8-50.4-29.5-105.5-36.7-162.8-32.2-6.4 0.5-15.9-2.6-18.5 4.9-3.3 9.8 8 11.3 13.6 15.2 26.4 18.4 49.7 39.9 67.9 66.7 10.9 15.9 25 28.7 41.5 38.4 17.3 10.2 4.5 21.6 1 31.1-5.4 14.5-13.7 2.4-19.2-0.8-35.8-20.9-68.1-46.7-90.1-82.1-18.7-30.2-42.3-53.3-74.9-67.1-4.1-1.7-10.4-2.9-9.8-7.8 0.4-2.8 6.4-5.6 10.4-7.1 36.9-13.2 74.8-20 116-19.1z"/>
		<path d="m532.3 755.8c-8.1-0.3-15.4-0.3-13.9-11.9 1.1-8.4 0.6-17 12.9-16.9 27.9 0.2 55.9 0 83.8 0.2 8.2 0.1 14.1 4.9 19 11 3.3 4.1 7.1 8.8 4.9 14.3-2.5 6.5-9.1 3.9-13.9 4-15.1 0.3-30.2 0.1-45.3 0.1-7.5-0.1-31.6-0.3-47.5-0.8z"/>
		<path d="m420.1 757.3c-13.7 0-27.3-0.4-41 0.1-14.4 0.5-13.4-6.7-7.8-15.3 5.4-8.5 12.7-15.2 23.9-15.2 22.8 0 45.5 0 68.3-0.1 8.9 0 14.4 2.4 13.9 12.9-0.5 9.6-1.3 13.3-14 15.8-16.8 2-43.3 1.2-43.3 1.8z"/>
		<path d="m551.3 576.5c-1.4 17.8-10.2 28.8-28.4 29.4s-28.4-9.8-29.9-27.5c-1.4-15.9 11.9-29.3 28.1-29.3 18.1 0.1 27.8 9.9 30.2 27.4z"/>
		<path d="m441 582.9c0.2-20.4 10.4-30 27.8-31.4 6.9-0.6 15.8 0 16.8 10.6 0.4 3.9-30.4 40.3-33.7 39.2-9.8-3.2-9.7-12.3-10.9-18.4z"/>
	</g>
	<g fill="#62704D">
		<path d="m874.2 144.4c-2 1.8-4.1 3.9-6.5 5.6-25.5 18.5-45.7 42.1-63.9 67.5-2.6 3.7-6 6.8-9.3 10-27.6 27.1-30.4 26.8-51.3-4.3-7.2-10.7-14.1-21.7-22.4-31.6-9.9-11.7-5.9-16.9 6.2-23.5 42.7-23 88.3-31.4 136.3-29.2 3.8 0.2 9.4-2.1 10.9 5.5z"/>
		<path d="m155.3 138.9c41.2-0.3 79.3 10.9 115.9 29.3 12.4 6.2 15.4 12.1 6.1 24-11.2 14.3-21.5 29.5-30.8 45.1-6.6 11.2-13 13-23.5 5.5-12.5-9-23.9-18.9-32.6-31.5-14.8-21.4-32.2-40.2-52.8-56.2-4.6-3.6-12.5-10.3-11.6-12.3 3.4-7.4 11.7-2.9 18-3.8 3.7-0.6 7.5-0.1 11.3-0.1z"/>
	</g>
</svg>
